<?xml version="1.0" encoding="utf-8"?>
<!-- Generator: Adobe Illustrator 19.2.1, SVG Export Plug-In . SVG Version: 6.00 Build 0)  -->
<svg version="1.1" id="Layer_1" xmlns="http://www.w3.org/2000/svg" xmlns:xlink="http://www.w3.org/1999/xlink" x="0px" y="0px"
	 viewBox="0 0 230.5 230.3" style="enable-background:new 0 0 230.5 230.3;" xml:space="preserve">
<style type="text/css">
	.st0{fill:#231F20;}
	.st1{fill:#D13239;}
	.st2{fill:#FFFFFF;}
</style>
<g>
	<g>
		<g>
			<path class="st0" d="M14.8,13.4c0,1.3,0,2.6-1,3.6c-1.1,1.1-2.8,1.5-4.4,1.5c-1.5,0-3.5-0.4-4.4-1.8c-0.6-1-0.6-3-0.6-4.1V4.9
				c0-1.7-0.1-2.2,1.8-2.2c0.2,0,0.7,0,0.7-0.3C7,2.1,6.8,2,6.5,2c-1,0-2,0.1-3.1,0.1c-1,0-2-0.1-3-0.1C0.2,2,0,2.1,0,2.4
				c0,0.3,0.4,0.3,0.7,0.3c1.9,0,1.8,0.5,1.8,2.2v8.5c0,1.8,0,3.3,1.6,4.5c1.3,0.9,3.4,1.2,5,1.2c1.8,0,3.7-0.3,5.1-1.4
				c1.5-1.3,1.5-2.6,1.5-4.3V5c0-1.2-0.1-2.3,1.4-2.3c0.2,0,0.9,0,0.9-0.4C17.8,2,17.5,2,17.3,2c-0.7,0-1.4,0.1-2.1,0.1
				c-0.8,0-1.6-0.1-2.4-0.1c-0.3,0-0.6,0.1-0.6,0.4c0,0.4,0.5,0.3,0.7,0.3c0.6,0,1.3,0,1.6,0.6c0.3,0.5,0.3,2,0.3,2.7V13.4z"/>
			<path class="st0" d="M19.6,16c0,1.2,0.2,2.1-1.2,2.2c-0.3,0-0.8,0-0.8,0.4c0,0.2,0.2,0.3,0.4,0.3c0.8,0,1.7-0.1,2.6-0.1
				c0.8,0,1.7,0.1,2.5,0.1c0.2,0,0.3-0.1,0.3-0.3c0-0.3-0.5-0.3-0.8-0.3c-1.5-0.1-1.2-1-1.2-2.2v-4.5c0-1.1,0.1-1.7,0.9-2.5
				C23,8.3,24,7.9,25,7.9c1.1,0,2,0.4,2.5,1.2C28,9.8,28,10.9,28,11.7V16c0,1.2,0.2,2.1-1.2,2.2c-0.3,0-0.8,0-0.8,0.4
				c0,0.2,0.2,0.3,0.4,0.3c0.8,0,1.7-0.1,2.6-0.1c0.8,0,1.7,0.1,2.5,0.1c0.2,0,0.3-0.1,0.3-0.3c0-0.3-0.5-0.3-0.8-0.3
				c-1.5-0.1-1.2-1-1.2-2.2v-4.3c0-1.3,0.1-2.6-0.8-3.7c-0.8-1-1.8-1.5-3.2-1.5c-2.5,0-4,2.2-4.4,2.2V7c0-0.2,0-0.4-0.2-0.4
				c-0.2,0-0.4,0.2-0.5,0.3c-0.4,0.5-1.6,1.2-2.2,1.4c-0.2,0.1-0.6,0.1-0.6,0.5C17.9,9,18.1,9,18.2,9h0.3c0.2,0,0.6,0,0.8,0.2
				c0.3,0.3,0.3,1.3,0.3,1.7V16z"/>
			<path class="st0" d="M36.1,4.3c0.8,0,1.2-0.6,1.2-1.3c0-0.6-0.4-1.3-1.1-1.3c-0.7,0-1.2,0.6-1.2,1.3C34.9,3.7,35.4,4.3,36.1,4.3
				 M37.1,7c0-0.2,0-0.4-0.2-0.4c-0.2,0-0.3,0.2-0.5,0.3c-0.4,0.5-1.6,1.2-2.2,1.4c-0.2,0.1-0.6,0.1-0.6,0.5C33.5,9,33.6,9,33.8,9
				h0.3c0.2,0,0.6,0,0.8,0.2c0.3,0.3,0.3,1.3,0.3,1.7V16c0,1.2,0.2,2.1-1.2,2.2c-0.3,0-0.8,0-0.8,0.4c0,0.2,0.2,0.3,0.4,0.3
				c0.8,0,1.7-0.1,2.6-0.1c0.8,0,1.7,0.1,2.5,0.1c0.2,0,0.3-0.1,0.3-0.3c0-0.3-0.5-0.3-0.8-0.3c-1.5-0.1-1.2-1-1.2-2.2V7z"/>
			<path class="st0" d="M46.2,16.3l-2.7-6.7c-0.1-0.3-0.4-1-0.4-1.3c0-0.5,0.5-0.8,1-0.8c0.2,0,0.8,0.1,0.8-0.2
				c0-0.3-0.3-0.3-0.5-0.3h-4.9c-0.2,0-0.4,0-0.4,0.2c0,0.3,0.3,0.3,0.5,0.3c1.1,0.1,1.3,0.6,1.7,1.6l3.9,9.4l0.2,0.3
				c0,0.1,0.1,0.3,0.2,0.3c0.2,0,0.4-0.5,0.5-0.6l3.9-8.4c0.5-1,0.9-2.5,2.2-2.6c0.2,0,0.7,0,0.7-0.3c0-0.2-0.1-0.2-0.3-0.2h-4
				C48.2,7,48,7,48,7.2c0,0.3,0.5,0.3,0.7,0.3c0.5,0,1,0.2,1,0.7c0,0.3-0.2,0.9-0.3,1.2L46.2,16.3z"/>
			<path class="st0" d="M54.8,10.8c-0.3,0-0.9,0.1-0.9-0.3c0-0.4,0.5-1.3,0.7-1.6c0.8-1.1,2.1-1.8,3.5-1.8c0.9,0,1.7,0.2,2.3,0.8
				c0.4,0.4,0.7,1,0.7,1.6c0,0.6-0.4,0.9-1,1.1c-0.8,0.2-2.3,0.2-3.1,0.2H54.8z M62.9,11.5c0.3,0,0.3-0.2,0.3-0.5
				c0-0.9-0.4-2-0.9-2.7c-0.9-1.2-2.4-1.7-3.9-1.7c-1.8,0-3.5,0.6-4.8,1.8c-1.4,1.2-1.9,2.7-1.9,4.5c0,3.4,2.6,6.2,6.1,6.2
				c1.7,0,3-0.4,4.3-1.5c0.2-0.2,1.1-0.9,1.1-1.2c0-0.1-0.1-0.2-0.2-0.2c-0.3,0-1.3,1.7-4,1.7c-3.3,0-5.2-2.6-5.2-5.6
				c0-0.9,0.3-0.8,1.1-0.8H62.9z"/>
			<path class="st0" d="M66,16c0,1.2,0.2,2.1-1.2,2.2c-0.3,0-0.8,0-0.8,0.4c0,0.2,0.2,0.3,0.4,0.3c0.8,0,1.7-0.1,2.6-0.1
				c0.8,0,1.7,0.1,2.5,0.1c0.2,0,0.3-0.1,0.3-0.3c0-0.3-0.5-0.3-0.8-0.3c-1.5-0.1-1.2-1-1.2-2.2v-4.3c0-1.1-0.1-1.8,0.6-2.7
				c0.3-0.4,0.8-1,1.4-1c0.8,0,0.8,1,1.7,1c0.6,0,1.1-0.4,1.1-1.1c0-0.8-0.7-1.3-1.5-1.3c-1.9,0-2.9,2.2-3.2,2.2
				c-0.2,0-0.1-0.5-0.1-0.6V7c0-0.2,0-0.4-0.2-0.4c-0.2,0-0.4,0.2-0.5,0.3c-0.4,0.5-1.6,1.2-2.2,1.4c-0.2,0.1-0.6,0.1-0.6,0.5
				C64.2,9,64.4,9,64.6,9h0.3c0.2,0,0.6,0,0.8,0.2C66,9.5,66,10.6,66,11V16z"/>
			<path class="st0" d="M83.6,7.9c0.1-0.1,0.4-0.6,0.4-0.8c0-0.2-0.3-0.2-0.5-0.2H77c-0.7,0-1.4,0.1-1.4-0.8c0-0.2,0-0.4-0.3-0.4
				c-0.3,0-0.4,0.6-0.5,0.8l-0.7,2c0,0.1-0.2,0.5-0.2,0.6c0,0.1,0.1,0.2,0.2,0.2c0.2,0,0.4-0.3,0.5-0.4C75,8.5,75.6,8.1,76,7.8
				c0.6-0.3,1.5-0.2,2.2-0.2h2.7c0.1,0,0.5,0,0.5,0.2c0,0.2-0.2,0.5-0.3,0.6l-7.2,9.5c-0.1,0.1-0.4,0.5-0.4,0.6c0,0.4,0.8,0.3,1,0.3
				h9.2c0.5,0.1,0.4-0.6,0.4-0.9l0.1-1.3c0-0.2,0.1-1-0.2-1c-0.3,0-0.3,0.3-0.4,0.5c-0.3,0.7-0.5,1.3-1.2,1.7
				c-0.7,0.4-1.9,0.4-2.7,0.4h-2.3c-0.1,0-0.9,0.1-0.9-0.2c0-0.2,0.3-0.6,0.4-0.7L83.6,7.9z"/>
			<path class="st0" d="M92.2,12.5c0.1,0,0.2-0.1,0.3-0.1c0.3,0,0.2,0.6,0.2,0.8v1.6c0,0.9,0,1.3-0.7,2c-0.6,0.6-1.6,1.1-2.5,1.1
				c-1,0-1.9-0.5-1.9-1.6c0-1.3,1.1-2,2.1-2.5L92.2,12.5z M89.7,13.2c-1.5,0.7-4,1.9-4,3.8c0,1.3,1.3,2.1,2.5,2.1c2.3,0,4.1-2,4.3-2
				c0.4,0,0.5,1.9,1.8,1.9c0.7,0,1.4-0.4,1.9-0.8c0.2-0.2,0.6-0.5,0.6-0.8c0-0.1-0.1-0.2-0.2-0.2c-0.2,0-0.5,0.7-1.2,0.7
				c-1,0-0.9-1.6-0.9-2.2V9.3c0-0.7,0.1-1.4-0.5-2c-0.6-0.5-1.6-0.7-2.5-0.7c-1.7,0-3.6,0.7-4.8,1.9c-0.5,0.4-1.1,1.2-1.1,1.9
				c0,0.3,0.1,0.3,0.3,0.3c0.3,0,0.9-0.2,1.2-0.3c0.4-0.2,0.6-0.6,0.8-1C88.5,8,89.4,7.1,91,7.1c1.7,0,1.7,1.1,1.7,2.4v1.2
				c0,1,0,1.1-1,1.5L89.7,13.2z"/>
			<path class="st0" d="M112.4,9.4c0.2-0.6,0.5-1.3,0.5-1.9c0-0.6-0.3-1-0.9-1c-0.7,0-1.6,0.6-2.1,1c-0.9,0.6-1.3,1.1-1.9,2
				c-0.1,0.1-0.3,0.5-0.3,0.6c0,0.1,0.1,0.2,0.2,0.2c0.1,0,0.3-0.2,0.3-0.2c0.3-0.5,1.8-2.2,2.5-2.2c0.2,0,0.4,0.2,0.4,0.4
				c0,0.3-0.3,0.9-0.4,1.2l-1.9,4.8c-0.3,0.7-0.8,1.9-0.8,2.6c0,1.7,0.9,2.3,2.5,2.3c4.4,0,8.9-7,8.9-11c0-0.6-0.3-1.9-1.1-1.9
				c-0.6,0-0.9,0.7-0.9,1.2c0,0.5,0.2,0.9,0.5,1.3c0.2,0.4,0.3,0.6,0.3,1.1c0,2.9-3.9,8.4-7,8.4c-0.8,0-1.4-0.6-1.4-1.4
				c0-0.6,0.3-1.4,0.5-2L112.4,9.4z"/>
			<path class="st0" d="M138,15.9c0.1-0.2,0.2-0.5,0.2-0.7c0-0.2-0.1-0.2-0.3-0.2c-0.3,0-0.5,0.5-0.6,0.7c-1.3,2.7-3.3,2.5-5.9,2.5
				c-0.5,0-1.1,0.1-1.1-0.5c0-0.2,0.1-0.7,0.2-0.9l3.7-11.9c0.4-1.3,0.6-2.1,2.4-2c0.3,0,0.8,0.1,0.8-0.3c0-0.3-0.3-0.3-0.5-0.3
				c-1,0-2.1,0.1-3.2,0.1c-0.8,0-1.7-0.1-2.5-0.1c-0.2,0-0.8-0.1-0.8,0.2c0,0.4,0.4,0.5,0.7,0.5c0.6-0.1,1.3-0.1,1.3,0.7
				c0,0.3-0.2,1-0.3,1.3L128.6,16c-0.2,0.6-0.4,1.5-0.9,1.8c-0.4,0.3-1,0.3-1.4,0.3c-0.3,0-0.7,0-0.7,0.4c0,0.3,1.1,0.2,1.4,0.2h9.2
				c0.9,0,1,0,1.2-0.9L138,15.9z"/>
			<path class="st0" d="M145.1,9.4c0.2-0.5,0.5-1.5,0.5-1.9c0-0.6-0.2-1-0.8-1c-1,0-2.5,1.3-3.2,2c-0.2,0.2-1.3,1.4-1.3,1.7
				c0,0.1,0.1,0.2,0.2,0.2c0.3,0,1.8-2.3,2.8-2.3c0.2,0,0.3,0.3,0.3,0.5c0,0.2-0.2,0.7-0.2,0.9l-4,13c-0.2,0.8-0.5,2.2-1.6,2.2
				c-1.1,0-1-1.7-2.1-1.7c-0.5,0-0.9,0.4-0.9,0.9c0,1,1.2,1.3,2.1,1.3c1.2,0,2.4-0.6,3.2-1.4c1.1-1.1,1.7-2.8,2.1-4.2L145.1,9.4z
				 M147,2.9c0-0.5-0.3-0.9-0.9-0.9c-0.8,0-1.4,1-1.4,1.7c0,0.5,0.3,1,0.8,1C146.4,4.7,147,3.7,147,2.9"/>
			<path class="st0" d="M157.3,11.9l-1.2,3.8c-0.2,0.6-0.5,1.7-0.5,2.4c0,0.5,0.2,1,0.7,1c1.3,0,2.9-1.3,3.7-2.2
				c0.2-0.2,1.4-1.7,1.4-2.1c0-0.1-0.1-0.2-0.2-0.2c-0.1,0-0.2,0.2-0.3,0.3c-0.4,0.7-1.9,2.7-2.8,2.7c-0.3,0-0.4-0.3-0.4-0.5
				c0-0.3,0.1-0.8,0.2-1.1l2.6-8.5c0.1-0.2,0.2-0.5,0.2-0.6c0-0.4-0.7-0.3-0.9-0.3c-1,0-0.8,0.1-1.1,1.1c-0.8,2.7-2.2,5.1-4,7.2
				c-0.8,0.9-3,3.1-4.3,3.1c-0.5,0-0.7-0.3-0.7-0.8c0-0.4,0.2-0.9,0.3-1.3l2.2-6.4c0.2-0.5,0.4-1.2,0.4-1.8c0-0.6-0.2-1.2-0.9-1.2
				c-1,0-2.3,1.2-3,1.8c-0.3,0.3-1.5,1.8-1.5,2.2c0,0.1,0,0.2,0.1,0.2c0.2,0,0.5-0.4,0.6-0.6c0.3-0.5,1.6-2.1,2.3-2.1
				c0.3,0,0.4,0.2,0.4,0.5c0,0.3-0.2,0.8-0.3,1.1l-2.1,6.1c-0.2,0.6-0.5,1.5-0.5,2.2c0,0.8,0.3,1.4,1.2,1.4c1.6,0,3.5-1.4,4.6-2.4
				c1.6-1.5,2.4-2.7,3.7-4.5L157.3,11.9z"/>
			<path class="st0" d="M174.2,10.1c0,3.2-3.3,8.6-6.9,8.6c-1.1,0-2-0.5-2-1.7c0-2.6,4.6-9.2,7.4-9.2
				C173.9,7.7,174.2,9.1,174.2,10.1 M164.5,12.8c-0.3,1-0.7,2.1-0.7,3.2c0,2.1,1.5,3.1,3.6,3.1c4.6,0,8.9-4.5,8.9-9.1
				c0-1.7-0.8-3.6-2.7-3.6c-2.6,0-5.9,4-7.1,6.1l3.7-12.3c0-0.2-0.1-0.3-0.2-0.3c-0.1,0-0.2,0.1-0.3,0.1c-0.9,0.6-1.7,0.7-2.8,0.7
				c-0.3,0-0.8,0.1-0.8,0.4c0,0.3,0.8,0.3,0.9,0.3c0.4,0,0.7,0.1,0.7,0.6c0,0.3-0.2,1-0.3,1.3L164.5,12.8z"/>
			<path class="st0" d="M177.8,15.7c-0.2,0.7-0.5,1.6-0.5,2.4c0,0.6,0.1,1,0.8,1c1.1,0,2.7-1.6,3.3-2.3c0.3-0.3,1.1-1.4,1.1-1.9
				c0-0.1,0-0.2-0.1-0.2c-0.2,0-0.3,0.2-0.4,0.3c-0.3,0.6-1.7,2.5-2.3,2.5c-0.3,0-0.4-0.2-0.4-0.5c0-0.4,0.2-0.8,0.3-1.1l4.6-15
				c0-0.1,0.2-0.5,0.2-0.6S184.3,0,184.2,0c-0.1,0-0.2,0.1-0.2,0.1c-0.9,0.7-2,1-3.1,1c-0.3,0-0.8,0-0.8,0.3c0,0.2,0.1,0.3,0.3,0.3
				l0.4,0c0.5,0,1,0.1,1,0.7c0,0.2-0.2,0.9-0.3,1.1L177.8,15.7z"/>
			<path class="st0" d="M189.7,9.4c0.2-0.5,0.5-1.5,0.5-1.9c0-0.6-0.2-1-0.8-1c-1,0-2.5,1.3-3.2,2c-0.2,0.2-1.3,1.4-1.3,1.7
				c0,0.1,0.1,0.2,0.2,0.2c0.3,0,1.8-2.3,2.8-2.3c0.2,0,0.3,0.3,0.3,0.5c0,0.2-0.2,0.7-0.2,0.9l-4,13c-0.2,0.8-0.5,2.2-1.6,2.2
				c-1.1,0-1-1.7-2.1-1.7c-0.5,0-0.9,0.4-0.9,0.9c0,1,1.2,1.3,2.1,1.3c1.2,0,2.4-0.6,3.2-1.4c1.1-1.1,1.7-2.8,2.1-4.2L189.7,9.4z
				 M191.6,2.9c0-0.5-0.3-0.9-0.9-0.9c-0.8,0-1.4,1-1.4,1.7c0,0.5,0.3,1,0.8,1C191.1,4.7,191.6,3.7,191.6,2.9"/>
			<path class="st0" d="M202.4,8.4c0,1.2-2.2,4.3-3,5.3c-0.9,1.2-3.3,4.1-5,4.1c-0.9,0-1.2-0.9-1.2-1.6c0-1.7,1.4-4.4,2.5-5.7
				c1.1-1.5,3-3.4,5-3.4C201.6,7,202.4,7.4,202.4,8.4 M202.8,7.4c-0.6-0.7-1.2-0.9-2.1-0.9c-2.5,0-4.9,1.5-6.5,3.3
				c-1.5,1.6-3.1,4.3-3.1,6.6c0,1.3,0.6,2.8,2.1,2.8c3.2,0,6.8-5.1,8.3-7.6l-1.6,5.3c-0.1,0.5-0.3,1-0.3,1.5c0,0.5,0.2,0.8,0.7,0.8
				c1.1,0,2.5-1.3,3.2-2c0.3-0.3,1.4-1.8,1.4-2.2c0-0.1-0.1-0.2-0.2-0.2c-0.2,0-0.4,0.3-0.5,0.5c-0.3,0.5-1.6,2.2-2.3,2.2
				c-0.2,0-0.3-0.2-0.3-0.4c0-0.2,0.2-0.7,0.2-0.9l2.8-9.1c0-0.1,0.1-0.4,0.1-0.5c0-0.4-0.8-0.2-0.9-0.2c-0.9,0-0.8,0.1-1.1,1
				L202.8,7.4z"/>
			<path class="st0" d="M220.3,9.9c0.2-0.6,0.5-1.3,0.5-2c0-1-0.8-1.5-1.7-1.5c-3.5,0-6.6,4.7-8.1,7.4l-0.1-0.1l1.2-3.7
				c0.2-0.7,0.5-1.6,0.5-2.4c0-0.8-0.3-1.3-1.1-1.3c-1.1,0-2.5,1.3-3.2,2.2c-0.2,0.2-1.2,1.5-1.2,1.8c0,0.1,0.1,0.2,0.2,0.2
				c0.2,0,0.2-0.2,0.3-0.3c0.3-0.6,1.8-2.4,2.5-2.4c0.4,0,0.5,0.3,0.5,0.6c0,0.5-0.2,1-0.3,1.5l-2.4,7.8c-0.1,0.1-0.2,0.5-0.2,0.6
				c0,0.5,0.6,0.3,0.8,0.3c0.9,0,0.9-0.1,1.1-0.9c0.6-2.1,2.7-5.7,4.1-7.4c0.8-1,2.5-3,4-3c0.6,0,0.9,0.4,0.9,0.9
				c0,0.5-0.2,1-0.4,1.5l-1.9,5.1c-0.3,0.8-0.7,2-0.7,2.9c0,0.8,0.3,1.2,1.2,1.2c1.1,0,2.7-1.6,3.4-2.3c0.2-0.2,1.2-1.5,1.2-1.8
				c0-0.1-0.1-0.2-0.2-0.2c-0.2,0-0.3,0.2-0.3,0.3c-0.5,0.7-2,2.6-2.8,2.6c-0.3,0-0.5-0.2-0.5-0.5c0-0.4,0.3-1,0.4-1.4L220.3,9.9z"
				/>
			<path class="st0" d="M230.5,2.9c0-0.5-0.4-0.9-0.9-0.9c-0.8,0-1.4,1-1.4,1.7c0,0.5,0.3,1,0.8,1C229.9,4.7,230.5,3.7,230.5,2.9
				 M224.8,15.7c-0.2,0.6-0.5,1.7-0.5,2.4c0,0.6,0.1,1.1,0.8,1.1c1.1,0,2.6-1.6,3.3-2.4c0.3-0.3,1.1-1.5,1.1-1.9
				c0-0.1,0-0.2-0.2-0.2c-0.2,0-0.3,0.2-0.4,0.3c-0.3,0.5-1.7,2.5-2.4,2.5c-0.2,0-0.3-0.2-0.3-0.5c0-0.3,0.1-0.7,0.2-1.1l2-6.5
				c0.2-0.5,0.5-1.5,0.5-2c0-0.6-0.2-1-0.8-1c-1,0-2.5,1.3-3.2,2c-0.2,0.2-1.3,1.4-1.3,1.7c0,0.1,0.1,0.2,0.2,0.2
				c0.3,0,1.9-2.4,2.8-2.4c0.3,0,0.3,0.3,0.3,0.5c0,0.2-0.2,0.7-0.2,0.9L224.8,15.7z"/>
		</g>
		<rect x="78.5" y="154.1" class="st1" width="76.2" height="76.2"/>
		<g>
			<path class="st0" d="M103.8,151.6H78.5V137H79v14h24.8V151.6z M109.3,151.6h-3.9v-0.7h3.9V151.6z M117.7,151.6l-6.8,0v-0.7h6.8
				V151.6z M124.2,151.6h-4.8v-0.7h4.8V151.6z M126.9,151.6h-1.1v-0.7h1.1V151.6z M154.7,151.6h-26.2v-0.7h25.3v-13.2h0.9V151.6z
				 M153.8,119.4h0.9v16.7h-0.9V119.4z M131,118h22.5v0.7L131,118z M114.9,120.2c0.2-0.3,0.9-0.8,1.8-0.8c1,0,1.9,0.8,1.9,1l0,4.8
				h-0.9l0-4.5c0-0.2-0.6-0.9-1.5-0.9C115.6,119.8,115.2,120,114.9,120.2 M114.3,110.2l2.3-1.7l1.7,1.1c0.5,0.4,0.8,0.9,0.8,1.6v2.6
				h-0.7v-2.6c0-0.6-0.3-1-0.7-1.3l-1.4-1L114.3,110.2z M118.1,95.8l0-2.9l-3.8-0.7h4.5v3.5H118.1z M116.3,75.5h0.5V89h-0.5V75.5z
				 M114,96.6h4.9l3.7,3h-1l-3.3-2.7L114,96.6z M109.5,100.4h13.3l2.6,10.4l-0.7,0l-2.5-9.9L109.5,100.4z M78.5,119.1h0.5v15.1h-0.5
				V119.1z M128.1,150.1h-0.9v-12.4h0.9V150.1z M106,136.2h20.9v0.7L106,136.2z M150.6,111.7l-2.3-6.5l-21.9-0.5h22.4l2.5,7H150.6z
				 M111.8,109.6l4.8-3.1l4.9,3.1v4.9h-0.9v-4.8l-4.1-3L111.8,109.6z M116.2,102.3c0-0.2,0.2-0.4,0.4-0.4c0.2,0,0.4,0.2,0.4,0.4
				c0,0.2-0.2,0.4-0.4,0.4C116.4,102.7,116.2,102.5,116.2,102.3 M115.7,105.6l0.1-0.6l1.2,0l-0.4-1.7l1,2.2H115.7z M111.5,105
				c0-0.2,0.1-0.3,0.3-0.3c0.2,0,0.3,0.1,0.3,0.3c0,0.2-0.1,0.3-0.3,0.3C111.6,105.4,111.5,105.2,111.5,105 M111.2,107.6l0-0.5
				l0.9,0l-0.3-1.3l0.8,1.8H111.2z M84.4,125.2l-0.7,0v-3.7l-1.3-0.2h2V125.2z M104.2,134.2l0-14.7h0.8v14.7L104.2,134.2z M81.3,118
				h22.5v0.6L81.3,118z M104.2,150.1v-12.4h0.8v12.4H104.2z M81.3,136.2h22.5v0.6L81.3,136.2z M82.1,112.1l2.2-7.4h22.8v0.5H84.6
				L82.1,112.1z M152.6,137.1l-23.8-0.8h23.7L152.6,137.1z M90.3,125.2l-0.7,0v-3.7l-1.3-0.2h2V125.2z M96,125.2l-0.7,0v-3.7
				l-1.3-0.2h2V125.2z M101.8,125.2l-0.7,0v-3.7l-1.3-0.2h2V125.2z M110.1,125.2l-0.7,0v-3.7l-1.3-0.2h2V125.2z M125,125.2l-0.7,0
				v-3.7l-1.3-0.2h2V125.2z M132.6,125.2l-0.7,0v-3.7l-1.3-0.2h2V125.2z M138.5,125.2l-0.7,0v-3.7l-1.3-0.2h2V125.2z M144.3,125.2
				l-0.7,0l0-3.7l-1.3-0.2h2V125.2z M150,125.2l-0.7,0v-3.7l-1.3-0.2h2V125.2z M84.4,143l-0.7,0v-3.7l-1.3-0.2h2V143z M90.3,143
				l-0.7,0v-3.7l-1.3-0.2h2V143z M96,143l-0.7,0v-3.7l-1.3-0.2h2V143z M101.8,143l-0.7,0v-3.7l-1.3-0.2h2V143z M132.6,143l-0.7,0
				v-3.7l-1.3-0.2h2V143z M138.5,143l-0.7,0v-3.7l-1.3-0.2h2V143z M144.3,143l-0.7,0l0-3.7l-1.3-0.2h2V143z M150,143l-0.7,0v-3.7
				l-1.3-0.2h2V143z M84.4,149.5h-0.7v-2.7l-1.3-0.2h2V149.5z M90.3,149.5h-0.7v-2.7l-1.3-0.2h2V149.5z M96,149.5h-0.7v-2.7
				l-1.3-0.2h2V149.5z M101.8,149.5h-0.7v-2.7l-1.3-0.2h2V149.5z M132.6,149.5h-0.7v-2.7l-1.3-0.2h2V149.5z M138.5,149.5h-0.7v-2.7
				l-1.3-0.2h2V149.5z M144.3,149.5h-0.7l0-2.7l-1.3-0.2h2V149.5z M150,149.5h-0.7v-2.7l-1.3-0.2h2V149.5z M107,116.2l-0.7,0v-3.9
				l-1.2-0.4h1.9V116.2z M107,110.8h-1.7v-0.7h1l-0.5-2.8L107,110.8z M128.1,116.2l-0.7,0v-3.9l-1.2-0.4h1.9V116.2z M128.1,110.8
				h-1.7v-0.7h1l-0.5-2.8L128.1,110.8z M154.7,116.9H154v-4.6l-1.8-0.7h2.5V116.9z M154.7,110.8h-2.3v-0.7h1.5l-0.6-4.3L154.7,110.8
				z M80.7,116.9H80v-4.6l-1.8-0.7h2.5V116.9z M80.7,110.8h-2.3v-0.7h1.5l-0.6-4.3L80.7,110.8z M120.9,105c0-0.2,0.1-0.3,0.3-0.3
				c0.2,0,0.3,0.1,0.3,0.3c0,0.2-0.1,0.3-0.3,0.3C121,105.4,120.9,105.2,120.9,105 M120.5,107.6l0-0.5l0.9,0l-0.3-1.3l0.7,1.8H120.5
				z M119,150.1h-0.9l0-8.9c0-1.3-0.9-2.2-2-2.2c-0.5,0-1,0.2-1.3,0.5c0.4-0.6,1.1-0.9,1.9-0.9c1.3,0,2.4,1.1,2.4,2.4L119,150.1z
				 M125.3,150.1h-0.7l0-8.5c0-1-0.6-1.7-1.4-1.7c-0.4,0-0.8,0.2-1,0.5c0.3-0.5,0.8-0.8,1.4-0.8c1,0,1.7,0.9,1.7,1.9L125.3,150.1z
				 M110.5,150.1h-0.7l0-8.5c0-1-0.6-1.7-1.4-1.7c-0.4,0-0.8,0.2-1,0.5c0.3-0.5,0.8-0.8,1.4-0.8c1,0,1.7,0.9,1.7,1.9L110.5,150.1z
				 M125,134.2h-0.7v-4.3c0-0.4-0.3-0.7-0.7-0.7c-0.2,0-0.4,0.1-0.5,0.2c0.2-0.3,0.5-0.5,0.9-0.5c0.5,0,1,0.4,1,1L125,134.2z
				 M117.8,134.2l0-4.3c0-1-0.7-1.7-1.6-1.7c-0.6,0-1.1,0.3-1.4,0.8c0.3-0.7,1-1.3,1.8-1.3c1.1,0,1.9,0.9,1.9,1.9l0,4.5H117.8z
				 M110.2,134.2h-0.7l0-4.3c0-0.4-0.3-0.7-0.7-0.7c-0.2,0-0.4,0.1-0.5,0.2c0.2-0.3,0.5-0.5,0.9-0.5c0.5,0,1,0.4,1,1L110.2,134.2z
				 M132.6,134.2h-0.7l0-4.3c0-0.4-0.3-0.7-0.7-0.7c-0.2,0-0.4,0.1-0.5,0.2c0.2-0.3,0.5-0.5,0.9-0.5c0.5,0,1,0.4,1,1V134.2z
				 M138.4,134.2h-0.7l0-4.3c0-0.4-0.3-0.7-0.7-0.7c-0.2,0-0.4,0.1-0.5,0.2c0.2-0.3,0.5-0.5,0.9-0.5c0.5,0,1,0.4,1,1V134.2z
				 M144.2,134.2h-0.7l0-4.3c0-0.4-0.3-0.7-0.7-0.7c-0.2,0-0.4,0.1-0.5,0.2c0.2-0.3,0.5-0.5,0.9-0.5c0.5,0,1,0.4,1,1L144.2,134.2z
				 M150,134.2h-0.7v-4.3c0-0.4-0.3-0.7-0.7-0.7c-0.2,0-0.4,0.1-0.5,0.2c0.2-0.3,0.5-0.5,0.9-0.5c0.5,0,1,0.4,1,1V134.2z
				 M101.8,134.2h-0.7l0-4.3c0-0.4-0.3-0.7-0.7-0.7c-0.2,0-0.4,0.1-0.5,0.2c0.2-0.3,0.5-0.5,0.9-0.5c0.5,0,1,0.4,1,1L101.8,134.2z
				 M96,134.2h-0.7v-4.3c0-0.4-0.3-0.7-0.7-0.7c-0.2,0-0.4,0.1-0.5,0.2c0.2-0.3,0.5-0.5,0.9-0.5c0.5,0,1,0.4,1,1L96,134.2z
				 M90.2,134.2h-0.7l0-4.3c0-0.4-0.3-0.7-0.7-0.7c-0.2,0-0.4,0.1-0.5,0.2c0.2-0.3,0.5-0.5,0.9-0.5c0.5,0,1,0.4,1,1L90.2,134.2z
				 M84.4,134.2h-0.7l0-4.3c0-0.4-0.3-0.7-0.7-0.7c-0.2,0-0.4,0.1-0.5,0.2c0.2-0.3,0.5-0.5,0.9-0.5c0.5,0,1,0.4,1,1L84.4,134.2z
				 M100.4,110c0-0.2,0.1-0.3,0.3-0.3c0.2,0,0.3,0.1,0.3,0.3c0,0.2-0.1,0.3-0.3,0.3C100.5,110.3,100.4,110.1,100.4,110 M101.5,114.6
				h-0.6v-2.9c0-0.5-0.3-0.8-0.7-0.8c-0.1,0-0.2,0-0.3,0.1c0.2-0.2,0.4-0.3,0.7-0.3c0.5,0,1,0.4,1,1V114.6z M95.4,110
				c0-0.2,0.1-0.3,0.3-0.3s0.3,0.1,0.3,0.3c0,0.2-0.1,0.3-0.3,0.3S95.4,110.1,95.4,110 M96.6,114.6h-0.6v-2.9c0-0.5-0.3-0.8-0.7-0.8
				c-0.1,0-0.2,0-0.3,0.1c0.2-0.2,0.4-0.3,0.7-0.3c0.5,0,1,0.4,1,1V114.6z M90,110c0-0.2,0.1-0.3,0.3-0.3s0.3,0.1,0.3,0.3
				c0,0.2-0.1,0.3-0.3,0.3S90,110.1,90,110 M91.2,114.6h-0.6v-2.9c0-0.5-0.3-0.8-0.7-0.8c-0.1,0-0.2,0-0.3,0.1
				c0.2-0.2,0.4-0.3,0.7-0.3c0.5,0,1,0.4,1,1V114.6z M93.4,108.3h-0.5V107c0-0.4-0.3-0.7-0.6-0.7c-0.1,0-0.2,0-0.3,0.1
				c0.2-0.2,0.4-0.3,0.6-0.3c0.5,0,0.9,0.4,0.9,0.9V108.3z M99.2,108.3h-0.5V107c0-0.4-0.3-0.7-0.6-0.7c-0.1,0-0.2,0-0.3,0.1
				c0.2-0.2,0.4-0.3,0.6-0.3c0.5,0,0.9,0.4,0.9,0.9V108.3z M134.8,108.3h-0.5V107c0-0.4-0.3-0.7-0.6-0.7c-0.1,0-0.2,0-0.3,0.1
				c0.2-0.2,0.4-0.3,0.6-0.3c0.5,0,0.9,0.4,0.9,0.9V108.3z M131.9,110c0-0.2,0.1-0.3,0.3-0.3c0.2,0,0.3,0.1,0.3,0.3
				c0,0.2-0.1,0.3-0.3,0.3C132,110.3,131.9,110.1,131.9,110 M133.1,114.6h-0.6v-2.9c0-0.5-0.3-0.8-0.7-0.8c-0.1,0-0.2,0-0.3,0.1
				c0.2-0.2,0.4-0.3,0.7-0.3c0.5,0,1,0.4,1,1V114.6z M140.7,108.3h-0.5V107c0-0.4-0.3-0.7-0.6-0.7c-0.1,0-0.2,0-0.3,0.1
				c0.2-0.2,0.4-0.3,0.6-0.3c0.5,0,0.9,0.4,0.9,0.9V108.3z M137.4,110c0-0.2,0.1-0.3,0.3-0.3c0.2,0,0.3,0.1,0.3,0.3
				c0,0.2-0.1,0.3-0.3,0.3C137.5,110.3,137.4,110.1,137.4,110 M138.5,114.6h-0.6v-2.9c0-0.5-0.3-0.8-0.7-0.8c-0.1,0-0.2,0-0.3,0.1
				c0.2-0.2,0.4-0.3,0.7-0.3c0.5,0,1,0.4,1,1V114.6z M142.3,110c0-0.2,0.1-0.3,0.3-0.3c0.2,0,0.3,0.1,0.3,0.3c0,0.2-0.1,0.3-0.3,0.3
				C142.5,110.3,142.3,110.1,142.3,110 M143.5,114.6h-0.6v-2.9c0-0.5-0.3-0.8-0.7-0.8c-0.1,0-0.2,0-0.3,0.1c0.2-0.2,0.4-0.3,0.7-0.3
				c0.5,0,1,0.4,1,1V114.6z M83.3,92.9c0-0.2,0.1-0.3,0.3-0.3s0.3,0.1,0.3,0.3c0,0.2-0.1,0.3-0.3,0.3S83.3,93.1,83.3,92.9
				 M85.3,103.7h-0.7l0-3.7c0-1-0.7-1.6-1.5-1.6c-0.3,0-0.5,0.1-0.7,0.2c0.3-0.3,0.7-0.4,1.1-0.4c1,0,1.8,0.8,1.8,1.8V103.7z
				 M84.9,97.3h-2.2l0-0.7l1.4,0l-0.4-2.8L84.9,97.3z M148.3,92.9c0-0.2,0.1-0.3,0.3-0.3c0.2,0,0.3,0.1,0.3,0.3
				c0,0.2-0.1,0.3-0.3,0.3C148.5,93.3,148.3,93.1,148.3,92.9 M150.3,103.7h-0.7l0-3.7c0-1-0.7-1.6-1.5-1.6c-0.3,0-0.5,0.1-0.7,0.2
				c0.3-0.3,0.7-0.4,1.1-0.4c1,0,1.8,0.8,1.8,1.8V103.7z M150,97.3h-2.2l0-0.7l1.4,0l-0.4-2.8L150,97.3z M116.6,89.8
				c0.9,0,1.7,0.7,1.7,1.6h-0.6c-0.1-0.7-0.7-1.2-1.4-1.2c-0.7,0-1.2,0.5-1.4,1.1C115,90.5,115.7,89.8,116.6,89.8 M121.8,117.5h5.1
				v0.7l-5.4-0.1c-0.6-1.4-2.7-2.5-5.2-2.5c-2.4,0-4.4,0.9-5.1,2.2c0.7-1.4,2.8-2.5,5.4-2.5C118.9,115.3,121,116.2,121.8,117.5
				 M128.1,118.8v15.4h-0.8l0-15.4H128.1z"/>
		</g>
	</g>
</g>
</svg>
